<svg width="12" height="12" viewBox="0 0 12 12" fill="none" xmlns="http://www.w3.org/2000/svg">
<path fill-rule="evenodd" clip-rule="evenodd" d="M6.00019 7.59122L9.97744 11.5685C10.1885 11.7795 10.4747 11.8981 10.7732 11.8981C11.0717 11.8981 11.3579 11.7795 11.5689 11.5685C11.78 11.3574 11.8986 11.0712 11.8986 10.7727C11.8986 10.4743 11.78 10.188 11.5689 9.97697L7.59019 5.99972L11.5682 2.02247C11.6726 1.91797 11.7555 1.79392 11.812 1.6574C11.8685 1.52089 11.8976 1.37458 11.8975 1.22683C11.8975 1.07908 11.8684 0.932781 11.8118 0.796291C11.7552 0.659801 11.6723 0.535792 11.5678 0.431341C11.4633 0.326891 11.3393 0.244047 11.2028 0.187538C11.0662 0.131028 10.9199 0.101961 10.7722 0.101996C10.6244 0.102031 10.4781 0.131167 10.3416 0.18774C10.2052 0.244314 10.0811 0.327217 9.97669 0.431717L6.00019 4.40897L2.02294 0.431717C1.91921 0.32422 1.79512 0.238457 1.65789 0.179433C1.52066 0.120409 1.37306 0.0893058 1.22368 0.0879378C1.07431 0.0865698 0.926153 0.114965 0.787869 0.171465C0.649585 0.227966 0.523937 0.311441 0.418259 0.417021C0.31258 0.5226 0.228987 0.648168 0.172355 0.786399C0.115724 0.92463 0.0871897 1.07276 0.0884169 1.22213C0.089644 1.37151 0.120608 1.51915 0.179503 1.65643C0.238397 1.79371 0.324042 1.91789 0.431441 2.02172L4.41019 5.99972L0.432192 9.97772C0.324793 10.0815 0.239147 10.2057 0.180253 10.343C0.121358 10.4803 0.0903939 10.6279 0.0891668 10.7773C0.0879397 10.9267 0.116474 11.0748 0.173105 11.213C0.229736 11.3513 0.31333 11.4768 0.419009 11.5824C0.524687 11.688 0.650335 11.7715 0.788619 11.828C0.926903 11.8845 1.07506 11.9129 1.22443 11.9115C1.37381 11.9101 1.52141 11.879 1.65864 11.82C1.79587 11.761 1.91996 11.6752 2.02369 11.5677L6.00019 7.59122Z" fill="#363636"/>
</svg>
