<svg width="18" height="18" viewBox="0 0 18 18" fill="none" xmlns="http://www.w3.org/2000/svg">
<path d="M8.2 13H9.8V8.2H8.2V13ZM9 6.6C9.22667 6.6 9.4168 6.5232 9.5704 6.3696C9.724 6.216 9.80053 6.02613 9.8 5.8C9.8 5.57333 9.7232 5.38347 9.5696 5.2304C9.416 5.07733 9.22613 5.00053 9 5C8.77333 5 8.58347 5.0768 8.4304 5.2304C8.27733 5.384 8.20053 5.57387 8.2 5.8C8.2 6.02667 8.2768 6.2168 8.4304 6.3704C8.584 6.524 8.77387 6.60053 9 6.6ZM9 17C7.89333 17 6.85333 16.7899 5.88 16.3696C4.90667 15.9493 4.06 15.3795 3.34 14.66C2.62 13.94 2.05013 13.0933 1.6304 12.12C1.21067 11.1467 1.00053 10.1067 1 9C1 7.89333 1.21013 6.85333 1.6304 5.88C2.05067 4.90667 2.62053 4.06 3.34 3.34C4.06 2.62 4.90667 2.05013 5.88 1.6304C6.85333 1.21067 7.89333 1.00053 9 1C10.1067 1 11.1467 1.21013 12.12 1.6304C13.0933 2.05067 13.94 2.62053 14.66 3.34C15.38 4.06 15.9501 4.90667 16.3704 5.88C16.7907 6.85333 17.0005 7.89333 17 9C17 10.1067 16.7899 11.1467 16.3696 12.12C15.9493 13.0933 15.3795 13.94 14.66 14.66C13.94 15.38 13.0933 15.9501 12.12 16.3704C11.1467 16.7907 10.1067 17.0005 9 17ZM9 15.4C10.7867 15.4 12.3 14.78 13.54 13.54C14.78 12.3 15.4 10.7867 15.4 9C15.4 7.21333 14.78 5.7 13.54 4.46C12.3 3.22 10.7867 2.6 9 2.6C7.21333 2.6 5.7 3.22 4.46 4.46C3.22 5.7 2.6 7.21333 2.6 9C2.6 10.7867 3.22 12.3 4.46 13.54C5.7 14.78 7.21333 15.4 9 15.4Z" fill="#818184"/>
</svg>
