<svg width="32" height="32" viewBox="0 0 32 32" fill="none" xmlns="http://www.w3.org/2000/svg">
<path d="M16.1866 0.186646C15.9355 0.186646 15.6844 0.193432 15.4333 0.20497L15.4876 1.42525C15.7183 1.41439 15.9491 1.40828 16.1866 1.40828C24.2494 1.40828 30.7784 7.93723 30.7784 16C30.7784 24.0628 24.2494 30.5917 16.1866 30.5917C10.1056 30.5917 4.89671 26.8793 2.70456 21.5924L4.57977 21.0291L1.2929 18.7012L0 22.4L1.53043 21.9453C3.88072 27.7277 9.56267 31.8134 16.1866 31.8134C24.9145 31.8134 32 24.7279 32 16C32 7.27212 24.9145 0.186646 16.1866 0.186646ZM14.0963 0.325097C13.1936 0.443867 12.3249 0.637292 11.4766 0.900622L11.8566 2.0605C12.6303 1.82024 13.438 1.6431 14.2592 1.53451L14.0963 0.325097ZM10.2278 1.35127C9.38621 1.69401 8.58537 2.10597 7.82524 2.58105L8.46999 3.61333C9.16904 3.17625 9.9088 2.79687 10.6825 2.48196L10.2278 1.35127ZM6.7122 3.34253C5.99972 3.87659 5.3334 4.46958 4.72025 5.11526L5.60594 5.94868C6.16925 5.35348 6.78685 4.80781 7.43839 4.31577L7.11262 3.86987L6.7122 3.34253ZM11.4291 3.92484L11.1304 5.10847L25.8579 8.87381L26.1565 7.6929L11.4291 3.92484ZM3.83932 6.12514C3.28348 6.8174 2.78465 7.56395 2.35029 8.34444L3.41243 8.94168C3.81353 8.21549 4.27368 7.53002 4.78744 6.88527L3.83932 6.12514ZM12.5014 6.72238C12.2367 8.48696 12.6914 10.4687 13.4651 12.0976C13.8995 13.007 14.4288 13.8079 14.9514 14.3915C15.2365 14.7105 15.5215 14.9548 15.7794 15.1313L15.4129 16.5701C15.1007 16.5972 14.7343 16.6787 14.327 16.8212C13.5873 17.0791 12.7389 17.5271 11.9245 18.1175C10.4585 19.1763 9.11474 20.6897 8.50392 22.3661L19.8719 25.2776C20.1366 23.5131 19.6819 21.5313 18.9082 19.9024C18.4738 18.993 17.9444 18.1922 17.4218 17.6085C17.1368 17.2895 16.8518 17.0452 16.5939 16.8687L16.9603 15.4299C17.2657 15.396 17.639 15.3213 18.0462 15.1788C18.786 14.9209 19.6344 14.473 20.4488 13.8825C21.9147 12.8238 23.2585 11.3103 23.8694 9.63394L12.5014 6.72238ZM1.74694 9.54571C1.3852 10.3601 1.08861 11.2017 0.864645 12.0772L2.05099 12.3623C2.25663 11.5614 2.52878 10.7877 2.86201 10.0412L1.74694 9.54571ZM0.590456 13.3871C0.448611 14.2354 0.373277 15.1109 0.373277 16V16.0611L1.59491 16.0475V16C1.59491 15.1788 1.66414 14.3712 1.79512 13.5839L0.590456 13.3871ZM6.51538 23.1262L6.21676 24.3071L20.9442 28.0738L21.2428 26.8929L6.51538 23.1262Z" fill="#363636"/>
</svg>
