<svg width="12" height="12" viewBox="0 0 12 12" fill="none" xmlns="http://www.w3.org/2000/svg">
<path d="M11.5432 5.49987L9.19577 7.54849L9.89894 10.5985C9.93615 10.758 9.92554 10.9249 9.86842 11.0783C9.8113 11.2317 9.71022 11.3649 9.57781 11.4613C9.4454 11.5576 9.28754 11.6127 9.12396 11.6198C8.96038 11.6269 8.79835 11.5856 8.65811 11.501L5.99792 9.88755L3.34345 11.501C3.20322 11.5856 3.04118 11.6269 2.8776 11.6198C2.71403 11.6127 2.55616 11.5576 2.42375 11.4613C2.29134 11.3649 2.19026 11.2317 2.13314 11.0783C2.07603 10.9249 2.06541 10.758 2.10262 10.5985L2.80475 7.55162L0.456849 5.49987C0.332666 5.39277 0.242869 5.25138 0.198718 5.09345C0.154567 4.93552 0.158029 4.76806 0.208668 4.61209C0.259307 4.45611 0.354869 4.31856 0.483372 4.21668C0.611874 4.1148 0.767596 4.05313 0.93101 4.03939L4.02581 3.77134L5.23385 0.889946C5.29693 0.738754 5.40334 0.609607 5.53968 0.518767C5.67601 0.427927 5.83618 0.379456 6 0.379456C6.16383 0.379456 6.32399 0.427927 6.46032 0.518767C6.59666 0.609607 6.70307 0.738754 6.76615 0.889946L7.97784 3.77134L11.0716 4.03939C11.235 4.05313 11.3907 4.1148 11.5192 4.21668C11.6477 4.31856 11.7433 4.45611 11.7939 4.61209C11.8446 4.76806 11.848 4.93552 11.8039 5.09345C11.7597 5.25138 11.6699 5.39277 11.5458 5.49987H11.5432Z" fill="white"/>
</svg>
