<svg width="102" height="103" viewBox="0 0 102 103" fill="none" xmlns="http://www.w3.org/2000/svg">
<path d="M16.7869 59.3462L12.4777 55.0262C13.8152 53.8475 14.6396 52.1933 14.7755 50.4159C14.9114 48.6384 14.348 46.8781 13.2052 45.5098C12.0625 44.1416 10.4307 43.2736 8.65749 43.0906C6.88424 42.9076 5.10961 43.4242 3.71155 44.5302C2.3135 45.6363 1.40249 47.2444 1.17256 49.0122C0.942624 50.78 1.41193 52.5677 2.48052 53.9946C3.54911 55.4215 5.13255 56.3748 6.89361 56.6515C8.65468 56.9283 10.4542 56.5065 11.9089 55.4762L16.2793 59.8538C16.3482 59.9127 16.4368 59.9436 16.5274 59.9401C16.618 59.9366 16.7039 59.899 16.768 59.8349C16.8322 59.7708 16.8697 59.6848 16.8732 59.5942C16.8767 59.5036 16.8459 59.415 16.7869 59.3462ZM1.82712 49.8908C1.82712 48.6778 2.18684 47.492 2.86078 46.4835C3.53472 45.475 4.4926 44.6889 5.61329 44.2248C6.73399 43.7607 7.96714 43.6394 9.1568 43.8761C10.3465 44.1129 11.4392 44.6972 12.2968 45.555C13.1544 46.4128 13.7383 47.5057 13.9747 48.6955C14.2111 49.8852 14.0894 51.1183 13.625 52.2389C13.1606 53.3594 12.3742 54.3171 11.3655 54.9907C10.3568 55.6644 9.17091 56.0237 7.95792 56.0234C6.33221 56.0215 4.77365 55.3747 3.62426 54.225C2.47488 53.0752 1.82855 51.5165 1.82712 49.8908Z" fill="#3C3C3C"/>
<g clip-path="url(#clip0_1_7839)">
<path d="M73.4601 51.5C73.4601 50.1033 73.1143 48.7282 72.4535 47.4977C71.7927 46.2671 70.8376 45.2193 69.6732 44.4478C68.5089 43.6762 67.1717 43.205 65.7809 43.0761C64.3901 42.9472 62.989 43.1646 61.7027 43.709C60.4165 44.2534 59.285 45.1078 58.4093 46.196C57.5336 47.2841 56.9409 48.5722 56.6842 49.9451C56.4275 51.3181 56.5147 52.7333 56.9381 54.0643C57.3615 55.3953 58.1078 56.6008 59.1105 57.5732C60.6786 59.0955 62.7756 59.9509 64.961 59.9596C67.1464 59.9684 69.2502 59.1298 70.8303 57.62C70.865 57.5972 70.8954 57.5686 70.9203 57.5354C71.7244 56.7494 72.3633 55.8106 72.7995 54.7741C73.2357 53.7377 73.4603 52.6245 73.4601 51.5ZM65.0001 43.76C66.4969 43.7611 67.9613 44.1963 69.2159 45.0127C70.4704 45.8291 71.4614 46.9917 72.0686 48.3598C72.6759 49.7279 72.8735 51.2427 72.6374 52.7208C72.4013 54.1988 71.7417 55.5768 70.7385 56.6876C70.3402 55.8984 69.7827 55.2004 69.1012 54.6375C68.4196 54.0745 67.6287 53.659 66.7785 53.417C67.4836 53.0227 68.0379 52.4056 68.3546 51.6624C68.6714 50.9193 68.7327 50.0921 68.5289 49.3104C68.3251 48.5286 67.8678 47.8366 67.2286 47.3426C66.5894 46.8487 65.8044 46.5807 64.9965 46.5807C64.1887 46.5807 63.4037 46.8487 62.7645 47.3426C62.1252 47.8366 61.6679 48.5286 61.4642 49.3104C61.2604 50.0921 61.3217 50.9193 61.6384 51.6624C61.9552 52.4056 62.5095 53.0227 63.2145 53.417C62.3641 53.659 61.573 54.0747 60.8914 54.638C60.2098 55.2013 59.6524 55.8998 59.2545 56.6894C57.9638 55.2701 57.2522 53.4184 57.2601 51.5C57.2601 49.4472 58.0756 47.4785 59.5271 46.027C60.9786 44.5755 62.9473 43.76 65.0001 43.76ZM65.0001 53.165C64.4203 53.165 63.8535 52.993 63.3715 52.6708C62.8895 52.3485 62.5139 51.8906 62.2923 51.3548C62.0706 50.819 62.0129 50.2295 62.1264 49.6609C62.2399 49.0923 62.5196 48.5702 62.9299 48.1606C63.3403 47.751 63.8629 47.4723 64.4317 47.3599C65.0005 47.2474 65.5899 47.3062 66.1253 47.5288C66.6607 47.7515 67.1179 48.1279 67.4393 48.6105C67.7606 49.0931 67.9316 49.6602 67.9305 50.24C67.9286 51.0161 67.6191 51.7598 67.0698 52.3081C66.5205 52.8564 65.7762 53.1645 65.0001 53.165ZM59.8017 57.2312C60.2558 56.2335 60.9874 55.3875 61.9091 54.7943C62.8309 54.201 63.9039 53.8856 65.0001 53.8856C66.0963 53.8856 67.1693 54.201 68.0911 54.7943C69.0129 55.3875 69.7445 56.2335 70.1985 57.2312C68.7761 58.5245 66.9226 59.2412 65.0001 59.2412C63.0776 59.2412 61.2242 58.5245 59.8017 57.2312Z" fill="#3C3C3C"/>
</g>
<g clip-path="url(#clip1_1_7839)">
<path d="M44.0741 56.144C44.9561 54.812 45.4601 53.21 45.4601 51.5C45.4601 49.79 44.9561 48.206 44.0741 46.874C44.0561 46.838 44.0381 46.82 44.0201 46.784C42.5081 44.534 39.9161 43.04 37.0001 43.04C36.9461 43.04 36.9101 43.04 36.8561 43.04C36.8201 43.04 36.7841 43.04 36.7481 43.04C33.9401 43.13 31.4561 44.588 29.9801 46.784C29.9621 46.802 29.9441 46.838 29.9261 46.874C29.0441 48.206 28.5401 49.79 28.5401 51.5C28.5401 53.21 29.0441 54.812 29.9261 56.144C29.9441 56.162 29.9441 56.18 29.9621 56.198C31.4561 58.412 33.9401 59.888 36.7841 59.96C36.8021 59.96 36.8021 59.96 36.8201 59.96C36.8201 59.96 36.8381 59.96 36.8561 59.96C36.9101 59.96 36.9641 59.96 37.0181 59.96C39.9521 59.96 42.5261 58.466 44.0561 56.198C44.0381 56.18 44.0561 56.162 44.0741 56.144ZM29.2781 51.86H32.7161C32.7161 51.968 32.7161 52.076 32.7161 52.184C32.7161 52.256 32.7161 53.804 33.2201 55.55C33.2201 55.568 33.2381 55.604 33.2381 55.622H30.4481C29.7641 54.524 29.3321 53.228 29.2781 51.86ZM30.4481 47.378H33.2381C32.9321 48.386 32.7341 49.628 32.7161 51.14H29.2781C29.3321 49.772 29.7641 48.476 30.4481 47.378ZM44.7221 51.14H41.1041C41.0681 49.628 40.8701 48.386 40.5821 47.378H43.5521C44.2361 48.476 44.6681 49.772 44.7221 51.14ZM40.3841 51.14H37.3601V47.378H39.8261C40.1501 48.35 40.3661 49.592 40.3841 51.14ZM37.3601 46.658V44.012C37.9721 44.354 38.8901 45.092 39.5561 46.658H37.3601ZM36.6401 43.922V46.658H34.2641C35.0021 44.93 36.0461 44.21 36.6401 43.922ZM36.6401 47.378V51.14H33.4361C33.4721 49.592 33.6881 48.35 33.9941 47.378H36.6401ZM33.4361 52.166C33.4361 52.058 33.4361 51.95 33.4361 51.86H36.6401V55.622H33.9941C33.4541 53.876 33.4361 52.202 33.4361 52.166ZM36.6401 56.342V59.078C35.4701 58.538 34.7321 57.476 34.2641 56.342H36.6401ZM37.3601 58.988V56.342H39.5561C39.1061 57.422 38.4221 58.43 37.3601 58.988ZM37.3601 55.622V51.86H40.3841C40.3841 51.968 40.3841 52.058 40.3841 52.166C40.3841 52.202 40.3661 53.876 39.8261 55.604H37.3601V55.622ZM40.6001 55.55C41.0861 53.84 41.1041 52.292 41.1041 52.202C41.1041 52.094 41.1041 51.986 41.1041 51.878H44.7221C44.6501 53.246 44.2361 54.542 43.5341 55.64H40.5821C40.5821 55.586 40.5821 55.568 40.6001 55.55ZM43.0301 46.658H40.3301C39.8081 45.29 39.0881 44.426 38.4401 43.886C40.2941 44.246 41.8961 45.254 43.0301 46.658ZM35.3081 43.94C34.6781 44.48 33.9941 45.326 33.4721 46.658H30.9521C32.0501 45.308 33.5621 44.336 35.3081 43.94ZM30.9701 56.342H33.4901C33.9221 57.494 34.5341 58.412 35.2721 59.042C33.5441 58.646 32.0321 57.674 30.9701 56.342ZM38.4761 59.096C39.2501 58.448 39.8801 57.53 40.3301 56.342H43.0301C41.9141 57.728 40.3121 58.736 38.4761 59.096Z" fill="#3C3C3C"/>
</g>
<path d="M98.6413 47.3708C98.6363 47.2788 98.5961 47.1922 98.5291 47.1289C98.4622 47.0656 98.3735 47.0304 98.2813 47.0306H96.4201V46.46C96.4201 46.0109 96.3317 45.5661 96.1598 45.1512C95.9879 44.7363 95.736 44.3592 95.4184 44.0417C95.1009 43.7241 94.7238 43.4722 94.3089 43.3003C93.894 43.1284 93.4492 43.04 93.0001 43.04C92.551 43.04 92.1063 43.1284 91.6913 43.3003C91.2764 43.4722 90.8994 43.7241 90.5818 44.0417C90.2642 44.3592 90.0123 44.7363 89.8405 45.1512C89.6686 45.5661 89.5801 46.0109 89.5801 46.46V47.0378H87.7171C87.625 47.0376 87.5363 47.0728 87.4693 47.1361C87.4023 47.1994 87.3622 47.286 87.3571 47.378L86.6533 59.5784C86.6504 59.6274 86.6575 59.6766 86.6743 59.7228C86.691 59.769 86.7171 59.8113 86.7508 59.847C86.7845 59.8828 86.8252 59.9112 86.8704 59.9307C86.9155 59.9501 86.9642 59.9601 87.0133 59.96H98.9869C99.0361 59.9601 99.0847 59.9501 99.1299 59.9307C99.175 59.9112 99.2157 59.8828 99.2494 59.847C99.2832 59.8113 99.3092 59.769 99.326 59.7228C99.3427 59.6766 99.3499 59.6274 99.3469 59.5784L98.6413 47.3708ZM90.3001 46.46C90.3001 46.1054 90.37 45.7543 90.5056 45.4267C90.6413 45.0992 90.8402 44.8015 91.0909 44.5508C91.3417 44.3001 91.6393 44.1012 91.9669 43.9655C92.2945 43.8298 92.6456 43.76 93.0001 43.76C93.3547 43.76 93.7058 43.8298 94.0334 43.9655C94.3609 44.1012 94.6586 44.3001 94.9093 44.5508C95.16 44.8015 95.3589 45.0992 95.4946 45.4267C95.6303 45.7543 95.7001 46.1054 95.7001 46.46V47.0378H90.3001V46.46ZM87.3949 59.24L88.0573 47.7506H89.5801V50.9132C89.5801 51.0087 89.6181 51.1002 89.6856 51.1677C89.7531 51.2352 89.8446 51.2732 89.9401 51.2732C90.0356 51.2732 90.1272 51.2352 90.1947 51.1677C90.2622 51.1002 90.3001 51.0087 90.3001 50.9132V47.7506H95.7001V50.9132C95.7001 51.0087 95.7381 51.1002 95.8056 51.1677C95.8731 51.2352 95.9646 51.2732 96.0601 51.2732C96.1556 51.2732 96.2472 51.2352 96.3147 51.1677C96.3822 51.1002 96.4201 51.0087 96.4201 50.9132V47.7506H97.9501L98.6053 59.24H87.3949Z" fill="#3C3C3C"/>
<defs>
<clipPath id="clip0_1_7839">
<rect width="18" height="18" fill="white" transform="translate(56.0001 42.5)"/>
</clipPath>
<clipPath id="clip1_1_7839">
<rect width="18" height="18" fill="white" transform="translate(28.0001 42.5)"/>
</clipPath>
</defs>
</svg>
